<svg width="25" height="25" viewBox="0 0 25 25" fill="none" xmlns="http://www.w3.org/2000/svg">
<path d="M23.2799 5.30405H22.0717V6.21394H23.2799C23.4841 6.21394 23.5611 6.47915 23.5611 6.72423V18.7279C23.5611 19.9535 22.8193 20.8698 21.798 20.8698H14.3883C13.7754 20.8698 13.1893 21.5491 13.1893 22.2845V22.4296H11.6999V22.2845C11.6999 21.5491 11.2963 20.8698 10.6834 20.8698H3.27374C2.25238 20.8698 1.32815 19.9535 1.32815 18.7279V6.72423C1.32815 6.47915 1.58758 6.21394 1.79182 6.21394H2.81757V5.30405H1.79182C1.17894 5.30405 0.596985 5.98874 0.596985 6.72423V18.7279C0.596985 20.4439 1.84373 21.7472 3.27374 21.7472H10.6834C10.8877 21.7472 10.9687 22.0394 10.9687 22.2845V22.5068C10.9687 22.9972 11.3862 23.307 11.7949 23.307H13.2768C13.6855 23.307 13.9205 22.9972 13.9205 22.5068V22.2845C13.9205 22.0394 14.184 21.7472 14.3883 21.7472H21.7979C23.228 21.7472 24.2922 20.4439 24.2922 18.7279V6.72423C24.2922 5.98878 23.8928 5.30405 23.2799 5.30405Z" fill="#DF7868"/>
<path d="M6.14844 5.30405H10.5896V6.21394H6.14844V5.30405ZM6.14844 7.31882H10.5896V8.19622H6.14844V7.31882ZM6.14844 9.3011H10.5896V10.211H6.14844V9.3011ZM14.2996 5.30405H18.7408V6.21394H14.2996V5.30405ZM14.2996 7.31882H18.7408V8.19622H14.2996V7.31882ZM14.2996 9.3011H18.7408V10.211H14.2996V9.3011Z" fill="#DF7868"/>
<path d="M21.2422 3.54923H20.7718V3.38987C20.7718 2.40932 20.2069 1.53445 19.3898 1.53445H14.944C13.9144 1.53445 13.0159 2.21142 12.5359 3.21237C12.0558 2.21142 11.1573 1.53445 10.1277 1.53445H5.68191C4.86479 1.53445 4.11746 2.40929 4.11746 3.38987V3.54923H3.82951C3.11459 3.54923 2.43848 4.40993 2.43848 5.39047V17.3941C2.43848 18.6198 3.32227 19.5374 4.29261 19.5374H11.0539C11.6668 19.5374 12.1654 20.1874 12.1654 20.8698H12.9064C12.9064 20.1874 13.4049 19.5374 14.0178 19.5374H20.7792C21.7495 19.5374 22.4508 18.6198 22.4508 17.3941V5.39047C22.4508 4.40993 21.9571 3.54923 21.2422 3.54923ZM14.944 2.41186H19.3898C19.7984 2.41186 20.0406 2.89946 20.0406 3.38987V16.0604C20.0406 16.5508 19.7984 16.8727 19.3898 16.8727H14.944C14.1385 16.8727 13.3789 17.3654 12.8102 18.0246V4.94589C12.8102 3.59762 13.8204 2.41186 14.944 2.41186ZM4.8486 3.38987C4.8486 2.8995 5.27324 2.41186 5.68188 2.41186H10.1277C11.2512 2.41186 12.079 3.59758 12.079 4.94589V18.0193C11.6999 17.3618 10.932 16.8727 10.1277 16.8727H5.68191C5.27327 16.8727 4.84862 16.5508 4.84862 16.0604V3.38987H4.8486ZM4.29258 18.66C3.73088 18.66 3.16962 18.1296 3.16962 17.3941V5.39047C3.16962 4.90855 3.52827 4.42663 3.82948 4.42663H4.11743V16.0604C4.11743 17.0409 4.86476 17.7501 5.68188 17.7501H10.1277C10.8348 17.7501 11.4584 18.1953 11.8239 18.8534C11.589 18.7239 11.3288 18.66 11.0539 18.66H4.29258ZM21.6925 17.3941C21.6925 18.1296 21.3408 18.66 20.7791 18.66H14.0178C13.7429 18.66 13.4826 18.7239 13.2477 18.8534C13.6133 18.1953 14.2369 17.7501 14.944 17.7501H19.3898C20.2069 17.7501 20.7718 17.0409 20.7718 16.0604V4.42663H21.2422C21.5434 4.42663 21.6925 4.90855 21.6925 5.39047V17.3941H21.6925Z" fill="#DF7868"/>
<path d="M10.5896 13.536C10.5896 13.7815 10.4237 13.9806 10.2191 13.9806H6.51892C6.3143 13.9806 6.14844 13.7815 6.14844 13.536V11.7605C6.14844 11.5149 6.3143 11.3159 6.51892 11.3159H10.2191C10.4237 11.3159 10.5896 11.5149 10.5896 11.7605V13.536ZM18.7408 13.536C18.7408 13.7815 18.5749 13.9806 18.3703 13.9806H14.6701C14.4655 13.9806 14.2996 13.7815 14.2996 13.536V11.7605C14.2996 11.5149 14.4655 11.3159 14.6701 11.3159H18.3703C18.5749 11.3159 18.7408 11.5149 18.7408 11.7605V13.536Z" fill="#DF7868"/>
</svg>
