<svg width="19" height="21" viewBox="0 0 19 21" fill="none" xmlns="http://www.w3.org/2000/svg">
<g clip-path="url(#clip0_223_44)">
<path d="M7 10.5L11.6667 15.1667M11.6667 10.5L7 15.1667M0 3.5H18.6667M14 3.5L13.6843 2.55275C13.3783 1.63479 13.2252 1.17581 12.9415 0.836477C12.6909 0.536818 12.3691 0.304873 12.0056 0.16191C11.5939 1.39077e-07 11.1102 0 10.1425 0H8.52413C7.5565 0 7.0728 1.39077e-07 6.66109 0.16191C6.29757 0.304873 5.97576 0.536818 5.72517 0.836477C5.44139 1.17581 5.28841 1.63479 4.98241 2.55275L4.66667 3.5M16.3333 3.5V15.4C16.3333 17.3602 16.3333 18.3402 15.9518 19.089C15.6163 19.7476 15.0809 20.283 14.4223 20.6185C13.6736 21 12.6936 21 10.7333 21H7.93333C5.97315 21 4.99305 21 4.24437 20.6185C3.5858 20.283 3.05037 19.7476 2.71481 19.089C2.33333 18.3402 2.33333 17.3602 2.33333 15.4V3.5" stroke="#E24831" stroke-width="2" stroke-linecap="round" stroke-linejoin="round"/>
</g>
<defs>
<clipPath id="clip0_223_44">
<rect width="19" height="21" fill="white"/>
</clipPath>
</defs>
</svg>
