<svg width="28" height="25" viewBox="0 0 28 25" fill="none" xmlns="http://www.w3.org/2000/svg">
<path d="M10.1587 6.1349C9.9007 6.07191 9.62969 6.06236 9.36683 6.107C9.10395 6.15164 8.85632 6.24926 8.64325 6.39224C8.43018 6.53522 8.25742 6.71971 8.13846 6.93131C8.01948 7.1429 7.95753 7.37587 7.95741 7.61208V14.9326C7.93783 16.7352 8.68671 18.4787 10.0556 19.817C11.9442 21.6393 14.2955 23.0407 16.9167 23.9061C17.3031 24.0312 17.7271 24.0312 18.1135 23.9061C20.7354 23.0414 23.0872 21.6399 24.9758 19.817C26.3446 18.4787 27.0936 16.7352 27.074 14.9326V7.61208C27.0741 7.37531 27.012 7.14173 26.8927 6.92965C26.7735 6.71756 26.6002 6.53274 26.3863 6.38965C26.1725 6.24656 25.9241 6.14909 25.6604 6.1049C25.3969 6.0607 25.1252 6.07096 24.8669 6.1349C20.0601 7.34523 14.9655 7.34523 10.1587 6.1349Z" stroke="#DF7868" stroke-linecap="round" stroke-linejoin="round"/>
<path d="M3.72882 15.3171C3.50753 15.1238 3.29668 14.9317 3.09855 14.7416C1.72968 13.4031 0.980794 11.6598 1.00037 9.8571V2.53558C0.999994 2.29824 1.06206 2.06406 1.18168 1.85148C1.3013 1.63891 1.47521 1.45373 1.68972 1.31054C1.90423 1.16734 2.15349 1.07003 2.41787 1.02628C2.68224 0.982528 2.95452 0.993521 3.21325 1.05839C8.01804 2.26879 13.1108 2.26879 17.9156 1.05839C18.1736 0.995407 18.4446 0.985861 18.7075 1.0305C18.9703 1.07514 19.218 1.17276 19.431 1.31574C19.6441 1.45872 19.8169 1.64321 19.9359 1.85481C20.0548 2.0664 20.1168 2.29937 20.1169 2.53558V4.32457" stroke="#DF7868" stroke-linecap="round" stroke-linejoin="round"/>
<path d="M14.0352 16.3922C14.0516 17.1853 14.4158 17.9429 15.0526 18.5047C15.7044 19.08 16.5885 19.403 17.5104 19.403C18.4322 19.403 19.3162 19.08 19.9681 18.5047C20.6049 17.9429 20.9691 17.1853 20.9855 16.3922" stroke="#DF7868" stroke-linecap="round" stroke-linejoin="round"/>
<path d="M11.4272 11.7119C11.4342 11.314 11.6165 10.9336 11.936 10.6517C12.2619 10.3642 12.7039 10.2026 13.1648 10.2026C13.6257 10.2026 14.0677 10.3642 14.3937 10.6517C14.7132 10.9336 14.8955 11.314 14.9025 11.7119" stroke="#DF7868" stroke-linecap="round" stroke-linejoin="round"/>
<path d="M20.1166 11.6976C20.1277 11.3049 20.3094 10.9303 20.625 10.6517C20.951 10.3642 21.393 10.2026 21.8539 10.2026C22.3148 10.2026 22.7568 10.3642 23.0827 10.6517C23.3984 10.9303 23.58 11.3049 23.5912 11.6976" stroke="#DF7868" stroke-linecap="round" stroke-linejoin="round"/>
</svg>
