<svg width="38" height="29" viewBox="0 0 38 29" fill="none" xmlns="http://www.w3.org/2000/svg">
<path fill-rule="evenodd" clip-rule="evenodd" d="M7.16151 7.53999H12.4231C13.1495 7.53999 13.7384 8.05935 13.7384 8.69999V24.94C13.7384 25.5807 13.1495 26.1 12.4231 26.1H7.16151C6.43505 26.1 5.84613 25.5807 5.84613 24.94V8.69999C5.84613 8.05935 6.43505 7.53999 7.16151 7.53999ZM8.4769 17.98V22.62C8.4769 23.2607 9.06582 23.78 9.79228 23.78C10.5187 23.78 11.1077 23.2607 11.1077 22.62V17.98C11.1077 17.3393 10.5187 16.82 9.79228 16.82C9.06582 16.82 8.4769 17.3393 8.4769 17.98ZM16.3692 2.89999H21.6307C22.3572 2.89999 22.9461 3.41935 22.9461 4.05999V24.94C22.9461 25.5807 22.3572 26.1 21.6307 26.1H16.3692C15.6427 26.1 15.0538 25.5807 15.0538 24.94V4.05999C15.0538 3.41935 15.6427 2.89999 16.3692 2.89999ZM17.6846 15.66V22.62C17.6846 23.2607 18.2735 23.78 19 23.78C19.7265 23.78 20.3154 23.2607 20.3154 22.62V15.66C20.3154 15.0193 19.7265 14.5 19 14.5C18.2735 14.5 17.6846 15.0193 17.6846 15.66ZM25.5769 5.21999H30.8384C31.5649 5.21999 32.1538 5.73935 32.1538 6.37999V24.94C32.1538 25.5807 31.5649 26.1 30.8384 26.1H25.5769C24.8504 26.1 24.2615 25.5807 24.2615 24.94V6.37999C24.2615 5.73935 24.8504 5.21999 25.5769 5.21999ZM26.8923 20.3V22.62C26.8923 23.2607 27.4812 23.78 28.2077 23.78C28.9342 23.78 29.5231 23.2607 29.5231 22.62V20.3C29.5231 19.6593 28.9342 19.14 28.2077 19.14C27.4812 19.14 26.8923 19.6593 26.8923 20.3Z" fill="white"/>
</svg>
