<svg width="23" height="24" viewBox="0 0 23 24" fill="none" xmlns="http://www.w3.org/2000/svg">
<g clip-path="url(#clip0_23_101)">
<path d="M21.7849 6.39068L14.8849 0.390675C14.5949 0.15056 14.2085 0.0185289 13.8081 0.0227738C13.4078 0.0270188 13.0252 0.167204 12.7421 0.413394C12.459 0.659585 12.2977 0.99227 12.2929 1.34041C12.288 1.68855 12.4398 2.02455 12.716 2.27667L9.75739 4.84934L16.6574 10.8493L19.616 8.27667C19.9036 8.52677 20.2937 8.66728 20.7004 8.66728C21.1072 8.66728 21.4972 8.52677 21.7849 8.27667C22.0725 8.02658 22.234 7.68737 22.234 7.33367C22.234 6.97998 22.0725 6.64077 21.7849 6.39068Z" fill="#DF7868"/>
<path d="M13.8 0H2.3C1.48667 0 0.706655 0.280952 0.131543 0.781049C-0.443568 1.28115 -0.766663 1.95942 -0.766663 2.66667V21.3333C-0.766663 22.0406 -0.443568 22.7189 0.131543 23.219C0.706655 23.719 1.48667 24 2.3 24H19.1667C19.98 24 20.76 23.719 21.3351 23.219C21.9102 22.7189 22.2333 22.0406 22.2333 21.3333V7.33333H15.3333C14.5667 7.33333 13.8 6.66667 13.8 6V0Z" fill="#DF7868"/>
<path d="M13.8 0H12.2667V6C12.2667 6.70724 12.5897 7.38552 13.1649 7.88562C13.74 8.38572 14.52 8.66667 15.3333 8.66667H22.2333V7.33333H15.3333C14.5667 7.33333 13.8 6.66667 13.8 6V0ZM9.96665 5.33333C9.96665 5.51014 9.88588 5.67971 9.7421 5.80474C9.59833 5.92976 9.40332 6 9.19999 6H3.06665C2.86332 6 2.66832 5.92976 2.52454 5.80474C2.38076 5.67971 2.29999 5.51014 2.29999 5.33333C2.29999 5.15652 2.38076 4.98695 2.52454 4.86193C2.66832 4.7369 2.86332 4.66667 3.06665 4.66667H9.19999C9.40332 4.66667 9.59833 4.7369 9.7421 4.86193C9.88588 4.98695 9.96665 5.15652 9.96665 5.33333ZM9.96665 8C9.96665 8.17681 9.88588 8.34638 9.7421 8.47141C9.59833 8.59643 9.40332 8.66667 9.19999 8.66667H3.06665C2.86332 8.66667 2.66832 8.59643 2.52454 8.47141C2.38076 8.34638 2.29999 8.17681 2.29999 8C2.29999 7.82319 2.38076 7.65362 2.52454 7.5286C2.66832 7.40357 2.86332 7.33333 3.06665 7.33333H9.19999C9.40332 7.33333 9.59833 7.40357 9.7421 7.5286C9.88588 7.65362 9.96665 7.82319 9.96665 8ZM19.1667 10.6667C19.1667 10.8435 19.0859 11.013 18.9421 11.1381C18.7983 11.2631 18.6033 11.3333 18.4 11.3333H3.06665C2.86332 11.3333 2.66832 11.2631 2.52454 11.1381C2.38076 11.013 2.29999 10.8435 2.29999 10.6667C2.29999 10.4899 2.38076 10.3203 2.52454 10.1953C2.66832 10.0702 2.86332 10 3.06665 10H18.4C18.6033 10 18.7983 10.0702 18.9421 10.1953C19.0859 10.3203 19.1667 10.4899 19.1667 10.6667ZM19.1667 13.3333C19.1667 13.5101 19.0859 13.6797 18.9421 13.8047C18.7983 13.9298 18.6033 14 18.4 14H3.06665C2.86332 14 2.66832 13.9298 2.52454 13.8047C2.38076 13.6797 2.29999 13.5101 2.29999 13.3333C2.29999 13.1565 2.38076 12.987 2.52454 12.8619C2.66832 12.7369 2.86332 12.6667 3.06665 12.6667H18.4C18.6033 12.6667 18.7983 12.7369 18.9421 12.8619C19.0859 12.987 19.1667 13.1565 19.1667 13.3333ZM19.1667 16C19.1667 16.1768 19.0859 16.3464 18.9421 16.4714C18.7983 16.5964 18.6033 16.6667 18.4 16.6667H3.06665C2.86332 16.6667 2.66832 16.5964 2.52454 16.4714C2.38076 16.3464 2.29999 16.1768 2.29999 16C2.29999 15.8232 2.38076 15.6536 2.52454 15.5286C2.66832 15.4036 2.86332 15.3333 3.06665 15.3333H18.4C18.6033 15.3333 18.7983 15.4036 18.9421 15.5286C19.0859 15.6536 19.1667 15.8232 19.1667 16ZM19.1667 18.6667C19.1667 18.8435 19.0859 19.013 18.9421 19.1381C18.7983 19.2631 18.6033 19.3333 18.4 19.3333H3.06665C2.86332 19.3333 2.66832 19.2631 2.52454 19.1381C2.38076 19.013 2.29999 18.8435 2.29999 18.6667C2.29999 18.4899 2.38076 18.3203 2.52454 18.1953C2.66832 18.0702 2.86332 18 3.06665 18H18.4C18.6033 18 18.7983 18.0702 18.9421 18.1953C19.0859 18.3203 19.1667 18.4899 19.1667 18.6667Z" fill="#1A1B1D"/>
</g>
<defs>
<clipPath id="clip0_23_101">
<rect width="23" height="24" fill="white"/>
</clipPath>
</defs>
</svg>
