<svg width="26" height="23" viewBox="0 0 26 23" fill="none" xmlns="http://www.w3.org/2000/svg">
<g clip-path="url(#clip0_30_429)">
<path fill-rule="evenodd" clip-rule="evenodd" d="M1.16151 4.54002H6.42305C7.14951 4.54002 7.73844 5.05938 7.73844 5.70002V21.94C7.73844 22.5807 7.14951 23.1 6.42305 23.1H1.16151C0.435054 23.1 -0.15387 22.5807 -0.15387 21.94V5.70002C-0.15387 5.05938 0.435054 4.54002 1.16151 4.54002ZM2.4769 14.98V19.62C2.4769 20.2607 3.06582 20.78 3.79228 20.78C4.51874 20.78 5.10767 20.2607 5.10767 19.62V14.98C5.10767 14.3394 4.51874 13.82 3.79228 13.82C3.06582 13.82 2.4769 14.3394 2.4769 14.98ZM10.3692 -0.0999756H15.6307C16.3572 -0.0999756 16.9461 0.41938 16.9461 1.06002V21.94C16.9461 22.5807 16.3572 23.1 15.6307 23.1H10.3692C9.64275 23.1 9.05382 22.5807 9.05382 21.94V1.06002C9.05382 0.41938 9.64275 -0.0999756 10.3692 -0.0999756ZM11.6846 12.66V19.62C11.6846 20.2607 12.2735 20.78 13 20.78C13.7265 20.78 14.3154 20.2607 14.3154 19.62V12.66C14.3154 12.0194 13.7265 11.5 13 11.5C12.2735 11.5 11.6846 12.0194 11.6846 12.66ZM19.5769 2.22002H24.8384C25.5649 2.22002 26.1538 2.73938 26.1538 3.38002V21.94C26.1538 22.5807 25.5649 23.1 24.8384 23.1H19.5769C18.8504 23.1 18.2615 22.5807 18.2615 21.94V3.38002C18.2615 2.73938 18.8504 2.22002 19.5769 2.22002ZM20.8923 17.3V19.62C20.8923 20.2607 21.4812 20.78 22.2077 20.78C22.9342 20.78 23.5231 20.2607 23.5231 19.62V17.3C23.5231 16.6594 22.9342 16.14 22.2077 16.14C21.4812 16.14 20.8923 16.6594 20.8923 17.3Z" fill="#DF7868"/>
</g>
<defs>
<clipPath id="clip0_30_429">
<rect width="26" height="23" fill="white"/>
</clipPath>
</defs>
</svg>
