<svg width="14" height="15" viewBox="0 0 14 15" fill="none" xmlns="http://www.w3.org/2000/svg">
<g clip-path="url(#clip0_125_13)">
<mask id="mask0_125_13" style="mask-type:luminance" maskUnits="userSpaceOnUse" x="-3" y="-3" width="20" height="20">
<path d="M17 -3H-3V17H17V-3Z" fill="white"/>
</mask>
<g mask="url(#mask0_125_13)">
<path d="M5.74998 11.1667C8.74152 11.1667 11.1666 8.74155 11.1666 5.75001C11.1666 2.75847 8.74152 0.333344 5.74998 0.333344C2.75844 0.333344 0.333313 2.75847 0.333313 5.75001C0.333313 8.74155 2.75844 11.1667 5.74998 11.1667Z" stroke="#DF7868" stroke-linejoin="round"/>
<path d="M13.372 13.9613C13.5347 14.124 13.7986 14.124 13.9613 13.9613C14.124 13.7986 14.124 13.5347 13.9613 13.372L13.372 13.9613ZM13.9613 13.372L9.79465 9.20532L9.20532 9.79465L13.372 13.9613L13.9613 13.372Z" fill="#DF7868"/>
</g>
</g>
<defs>
<clipPath id="clip0_125_13">
<rect width="14" height="15" fill="white"/>
</clipPath>
</defs>
</svg>
