<svg width="22" height="22" viewBox="0 0 22 22" fill="none" xmlns="http://www.w3.org/2000/svg">
<g clip-path="url(#clip0_223_17)">
<path d="M18.778 3.22197C14.4821 -1.074 7.517 -1.074 3.22193 3.22205C-1.074 7.51798 -1.074 14.483 3.2221 18.7781C7.517 23.074 14.4821 23.074 18.778 18.778C23.074 14.483 23.074 7.51798 18.778 3.22197ZM17.4818 17.4816C13.9017 21.0616 8.09755 21.0616 4.51846 17.4818C0.938394 13.9025 0.938394 8.09836 4.51838 4.51838C8.09755 0.938351 13.9017 0.938351 17.4817 4.51838C21.0616 8.09841 21.0616 13.9025 17.4818 17.4816Z" fill="#AFDEA2"/>
<path d="M15.3518 7.26848L9.58332 13.0369L6.56485 10.0185C6.20687 9.66051 5.62645 9.66051 5.26848 10.0185C4.91051 10.3765 4.91051 10.9569 5.26848 11.3148L8.93513 14.9815C9.29311 15.3395 9.87353 15.3395 10.2315 14.9815L16.6482 8.56485C17.0061 8.20687 17.0061 7.62645 16.6482 7.26848C16.2902 6.91051 15.7098 6.91051 15.3518 7.26848Z" fill="#AFDEA2"/>
</g>
<defs>
<clipPath id="clip0_223_17">
<rect width="22" height="22" fill="white"/>
</clipPath>
</defs>
</svg>
