<svg width="12" height="12" viewBox="0 0 12 12" fill="none" xmlns="http://www.w3.org/2000/svg">
<path d="M6 1.5C4.89124 1.50387 3.82295 1.91695 3 2.66V1.5C3 1.36739 2.94732 1.24021 2.85356 1.14645C2.75979 1.05268 2.63261 1 2.5 1C2.36739 1 2.24022 1.05268 2.14645 1.14645C2.05268 1.24021 2 1.36739 2 1.5V4C1.9996 4.12596 2.04675 4.24743 2.13203 4.34013C2.21732 4.43283 2.33445 4.48992 2.46 4.5H5C5.13261 4.5 5.25979 4.44732 5.35356 4.35355C5.44732 4.25979 5.5 4.13261 5.5 4C5.5 3.86739 5.44732 3.74021 5.35356 3.64645C5.25979 3.55268 5.13261 3.5 5 3.5H3.555C4.0475 3.01918 4.67083 2.69425 5.34703 2.56584C6.02323 2.43743 6.72228 2.51124 7.35675 2.77805C7.99122 3.04486 8.53293 3.49281 8.91415 4.06589C9.29536 4.63896 9.49914 5.31172 9.5 6C9.5 6.13261 9.55268 6.25979 9.64645 6.35355C9.74022 6.44732 9.86739 6.5 10 6.5C10.1326 6.5 10.2598 6.44732 10.3536 6.35355C10.4473 6.25979 10.5 6.13261 10.5 6C10.5 4.80653 10.0259 3.66193 9.18198 2.81802C8.33807 1.97411 7.19348 1.5 6 1.5Z" fill="white" fill-opacity="0.376471"/>
<path d="M9.54 7.5H7C6.86739 7.5 6.74021 7.55268 6.64645 7.64645C6.55268 7.74021 6.5 7.86739 6.5 8C6.5 8.13261 6.55268 8.25979 6.64645 8.35355C6.74021 8.44732 6.86739 8.5 7 8.5H8.445C7.9525 8.98082 7.32917 9.30575 6.65297 9.43416C5.97677 9.56257 5.27772 9.48876 4.64325 9.22195C4.00879 8.95514 3.46707 8.50719 3.08586 7.93411C2.70464 7.36104 2.50086 6.68828 2.5 6C2.5 5.86739 2.44732 5.74021 2.35355 5.64645C2.25978 5.55268 2.13261 5.5 2 5.5C1.86739 5.5 1.74021 5.55268 1.64645 5.64645C1.55268 5.74021 1.5 5.86739 1.5 6C1.50271 6.86749 1.75611 7.71571 2.22969 8.44253C2.70327 9.16935 3.37684 9.7438 4.1693 10.0967C4.96177 10.4496 5.83935 10.566 6.69639 10.4317C7.55344 10.2974 8.35341 9.91833 9 9.34V10.5C9 10.6326 9.05268 10.7598 9.14645 10.8536C9.24021 10.9473 9.36739 11 9.5 11C9.63261 11 9.75978 10.9473 9.85355 10.8536C9.94732 10.7598 10 10.6326 10 10.5V8C10.0004 7.87404 9.95325 7.75257 9.86797 7.65987C9.78268 7.56717 9.66556 7.51008 9.54 7.5Z" fill="white" fill-opacity="0.376471"/>
</svg>
