<svg width="20" height="20" viewBox="0 0 20 20" fill="none" xmlns="http://www.w3.org/2000/svg">
<path d="M3.44565 8.80435C2.92339 8.80435 2.5 9.22775 2.5 9.75C2.5 10.2723 2.92339 10.6957 3.44565 10.6957V8.80435ZM9.75 10.6957C10.2723 10.6957 10.6957 10.2723 10.6957 9.75C10.6957 9.22775 10.2723 8.80435 9.75 8.80435V10.6957ZM9.75 8.80435C9.22775 8.80435 8.80435 9.22775 8.80435 9.75C8.80435 10.2723 9.22775 10.6957 9.75 10.6957V8.80435ZM16.0543 10.6957C16.5766 10.6957 17 10.2723 17 9.75C17 9.22775 16.5766 8.80435 16.0543 8.80435V10.6957ZM10.6957 9.75C10.6957 9.22775 10.2723 8.80435 9.75 8.80435C9.22775 8.80435 8.80435 9.22775 8.80435 9.75H10.6957ZM8.80435 16.0543C8.80435 16.5766 9.22775 17 9.75 17C10.2723 17 10.6957 16.5766 10.6957 16.0543H8.80435ZM8.80435 9.75C8.80435 10.2723 9.22775 10.6957 9.75 10.6957C10.2723 10.6957 10.6957 10.2723 10.6957 9.75H8.80435ZM10.6957 3.44565C10.6957 2.92339 10.2723 2.5 9.75 2.5C9.22775 2.5 8.80435 2.92339 8.80435 3.44565H10.6957ZM3.44565 10.6957H9.75V8.80435H3.44565V10.6957ZM9.75 10.6957H16.0543V8.80435H9.75V10.6957ZM9.75 9.75H8.80435V9.75126C8.80435 9.75139 8.80435 9.75277 8.80435 9.75277C8.80435 9.75265 8.80435 9.7529 8.80435 9.75277C8.80435 9.75277 8.80435 9.75416 8.80435 9.75429C8.80435 9.75416 8.80435 9.75441 8.80435 9.75429C8.80435 9.75441 8.80435 9.75542 8.80435 9.75555C8.80435 9.75567 8.80435 9.75681 8.80435 9.75693C8.80435 9.75706 8.80435 9.75807 8.80435 9.7582C8.80435 9.75832 8.80435 9.75946 8.80435 9.75971C8.80435 9.75984 8.80435 9.76097 8.80435 9.76122C8.80435 9.76135 8.80435 9.76273 8.80435 9.76286C8.80435 9.76261 8.80435 9.76311 8.80435 9.76286C8.80435 9.76311 8.80435 9.76387 8.80435 9.76412C8.80435 9.76387 8.80435 9.76437 8.80435 9.76412C8.80435 9.76437 8.80435 9.76526 8.80435 9.76538C8.80435 9.76513 8.80435 9.76564 8.80435 9.76538C8.80435 9.76564 8.80435 9.76652 8.80435 9.76677C8.80435 9.76652 8.80435 9.76702 8.80435 9.76677C8.80435 9.76702 8.80435 9.76803 8.80435 9.76828C8.80435 9.76803 8.80435 9.76853 8.80435 9.76828C8.80435 9.76853 8.80435 9.76954 8.80435 9.7698C8.80435 9.76942 8.80435 9.77005 8.80435 9.7698C8.80435 9.77005 8.80435 9.77118 8.80435 9.77144C8.80435 9.77118 8.80435 9.77169 8.80435 9.77144C8.80435 9.77169 8.80435 9.77282 8.80435 9.7732C8.80435 9.77282 8.80435 9.77345 8.80435 9.7732C8.80435 9.77345 8.80435 9.77471 8.80435 9.77497C8.80435 9.77471 8.80435 9.77522 8.80435 9.77497C8.80435 9.77534 8.80435 9.77648 8.80435 9.77686C8.80435 9.77648 8.80435 9.77724 8.80435 9.77686C8.80435 9.77711 8.80435 9.7785 8.80435 9.77887C8.80435 9.7785 8.80435 9.77913 8.80435 9.77887C8.80435 9.77925 8.80435 9.78051 8.80435 9.78089C8.80435 9.78051 8.80435 9.78127 8.80435 9.78089C8.80435 9.78127 8.80435 9.78278 8.80435 9.78316C8.80435 9.78278 8.80435 9.78354 8.80435 9.78316C8.80435 9.78354 8.80435 9.78505 8.80435 9.78543C8.80435 9.78505 8.80435 9.78581 8.80435 9.78543C8.80435 9.78581 8.80435 9.78732 8.80435 9.78783C8.80435 9.78745 8.80435 9.7882 8.80435 9.78783C8.80435 9.78833 8.80435 9.78984 8.80435 9.79022C8.80435 9.79073 8.80435 9.7911 8.80435 9.79161C8.80435 9.79199 8.80435 9.79237 8.80435 9.79287C8.80435 9.79337 8.80435 9.79375 8.80435 9.79426C8.80435 9.79464 8.80435 9.79514 8.80435 9.79552C8.80435 9.79602 8.80435 9.79653 8.80435 9.79703C8.80435 9.79741 8.80435 9.79791 8.80435 9.79842C8.80435 9.79892 8.80435 9.7993 8.80435 9.7998C8.80435 9.80031 8.80435 9.80081 8.80435 9.80132C8.80435 9.80182 8.80435 9.80233 8.80435 9.80283C8.80435 9.80333 8.80435 9.80384 8.80435 9.80434C8.80435 9.80485 8.80435 9.80548 8.80435 9.80598C8.80435 9.80649 8.80435 9.80699 8.80435 9.8075C8.80435 9.80813 8.80435 9.80863 8.80435 9.80913C8.80435 9.80977 8.80435 9.81027 8.80435 9.81077C8.80435 9.8114 8.80435 9.81191 8.80435 9.81254C8.80435 9.81304 8.80435 9.81367 8.80435 9.81418C8.80435 9.81481 8.80435 9.81544 8.80435 9.81594C8.80435 9.81657 8.80435 9.8172 8.80435 9.81783C8.80435 9.81834 8.80435 9.81897 8.80435 9.8196C8.80435 9.82023 8.80435 9.82086 8.80435 9.82149C8.80435 9.822 8.80435 9.82263 8.80435 9.82326C8.80435 9.82389 8.80435 9.82464 8.80435 9.82527C8.80435 9.8259 8.80435 9.82654 8.80435 9.82717C8.80435 9.8278 8.80435 9.82843 8.80435 9.82918C8.80435 9.82981 8.80435 9.83044 8.80435 9.8312C8.80435 9.83183 8.80435 9.83259 8.80435 9.83322C8.80435 9.83385 8.80435 9.8346 8.80435 9.83524C8.80435 9.83599 8.80435 9.83675 8.80435 9.83738C8.80435 9.83813 8.80435 9.83889 8.80435 9.83952C8.80435 9.84028 8.80435 9.84103 8.80435 9.84179C8.80435 9.84242 8.80435 9.84318 8.80435 9.84394C8.80435 9.84469 8.80435 9.84545 8.80435 9.8462C8.80435 9.84696 8.80435 9.84772 8.80435 9.84847C8.80435 9.84923 8.80435 9.85011 8.80435 9.85087C8.80435 9.85163 8.80435 9.85238 8.80435 9.85314C8.80435 9.85402 8.80435 9.85478 8.80435 9.85554C8.80435 9.85642 8.80435 9.85717 8.80435 9.85806C8.80435 9.85881 8.80435 9.8597 8.80435 9.86045C8.80435 9.86133 8.80435 9.86222 8.80435 9.86297C8.80435 9.86386 8.80435 9.86474 8.80435 9.86562C8.80435 9.86638 8.80435 9.86726 8.80435 9.86814C8.80435 9.86903 8.80435 9.86991 8.80435 9.87079C8.80435 9.87167 8.80435 9.87256 8.80435 9.87344C8.80435 9.87432 8.80435 9.87521 8.80435 9.87609C8.80435 9.8771 8.80435 9.87798 8.80435 9.87886C8.80435 9.87987 8.80435 9.88075 8.80435 9.88163C8.80435 9.88264 8.80435 9.88353 8.80435 9.88454C8.80435 9.88542 8.80435 9.88643 8.80435 9.88731C8.80435 9.88832 8.80435 9.88933 8.80435 9.89021C8.80435 9.89122 8.80435 9.89223 8.80435 9.89323C8.80435 9.89424 8.80435 9.89513 8.80435 9.89614C8.80435 9.89714 8.80435 9.89815 8.80435 9.89916C8.80435 9.90017 8.80435 9.9013 8.80435 9.90231C8.80435 9.90332 8.80435 9.90433 8.80435 9.90534C8.80435 9.90647 8.80435 9.90748 8.80435 9.90849C8.80435 9.90963 8.80435 9.91063 8.80435 9.91177C8.80435 9.91278 8.80435 9.91391 8.80435 9.91492C8.80435 9.91606 8.80435 9.91719 8.80435 9.9182C8.80435 9.91934 8.80435 9.92047 8.80435 9.9216C8.80435 9.92261 8.80435 9.92375 8.80435 9.92488C8.80435 9.92602 8.80435 9.92715 8.80435 9.92829C8.80435 9.92942 8.80435 9.93056 8.80435 9.93182C8.80435 9.93295 8.80435 9.93409 8.80435 9.93522C8.80435 9.93648 8.80435 9.93762 8.80435 9.93875C8.80435 9.94001 8.80435 9.94115 8.80435 9.94241C8.80435 9.94354 8.80435 9.94481 8.80435 9.94607C8.80435 9.9472 8.80435 9.94846 8.80435 9.94972C8.80435 9.95098 8.80435 9.95212 8.80435 9.95338C8.80435 9.95464 8.80435 9.9559 8.80435 9.95716C8.80435 9.95842 8.80435 9.95968 8.80435 9.96094C8.80435 9.96233 8.80435 9.96359 8.80435 9.96485C8.80435 9.96611 8.80435 9.9675 8.80435 9.96876C8.80435 9.97002 8.80435 9.97141 8.80435 9.97267C8.80435 9.97406 8.80435 9.97532 8.80435 9.9767C8.80435 9.97809 8.80435 9.97935 8.80435 9.98074C8.80435 9.98213 8.80435 9.98351 8.80435 9.9849C8.80435 9.98629 8.80435 9.98767 8.80435 9.98906C8.80435 9.99045 8.80435 9.99183 8.80435 9.99322C8.80435 9.99461 8.80435 9.996 8.80435 9.99738C8.80435 9.9989 8.80435 10.0003 8.80435 10.0018C8.80435 10.0032 8.80435 10.0046 8.80435 10.0061C8.80435 10.0075 8.80435 10.009 8.80435 10.0105C8.80435 10.0119 8.80435 10.0134 8.80435 10.0149C8.80435 10.0164 8.80435 10.0179 8.80435 10.0194C8.80435 10.021 8.80435 10.0225 8.80435 10.024C8.80435 10.0255 8.80435 10.027 8.80435 10.0285C8.80435 10.03 8.80435 10.0316 8.80435 10.0332C8.80435 10.0347 8.80435 10.0363 8.80435 10.0379C8.80435 10.0395 8.80435 10.041 8.80435 10.0426C8.80435 10.0442 8.80435 10.0458 8.80435 10.0474C8.80435 10.049 8.80435 10.0506 8.80435 10.0522C8.80435 10.0539 8.80435 10.0555 8.80435 10.0571C8.80435 10.0588 8.80435 10.0604 8.80435 10.0621C8.80435 10.0637 8.80435 10.0655 8.80435 10.0671C8.80435 10.0687 8.80435 10.0705 8.80435 10.0722C8.80435 10.0739 8.80435 10.0756 8.80435 10.0773C8.80435 10.079 8.80435 10.0807 8.80435 10.0825C8.80435 10.0841 8.80435 10.0859 8.80435 10.0877C8.80435 10.0894 8.80435 10.0912 8.80435 10.093C8.80435 10.0947 8.80435 10.0965 8.80435 10.0983C8.80435 10.1 8.80435 10.1019 8.80435 10.1037C8.80435 10.1054 8.80435 10.1073 8.80435 10.1091C8.80435 10.111 8.80435 10.1128 8.80435 10.1146C8.80435 10.1164 8.80435 10.1183 8.80435 10.1202C8.80435 10.1221 8.80435 10.1238 8.80435 10.1257C8.80435 10.1276 8.80435 10.1295 8.80435 10.1314C8.80435 10.1333 8.80435 10.1352 8.80435 10.1372C8.80435 10.1391 8.80435 10.141 8.80435 10.1429C8.80435 10.1449 8.80435 10.1468 8.80435 10.1488C8.80435 10.1507 8.80435 10.1527 8.80435 10.1546C8.80435 10.1566 8.80435 10.1586 8.80435 10.1607C8.80435 10.1626 8.80435 10.1646 8.80435 10.1666C8.80435 10.1686 8.80435 10.1706 8.80435 10.1726C8.80435 10.1747 8.80435 10.1768 8.80435 10.1788C8.80435 10.1808 8.80435 10.183 8.80435 10.185C8.80435 10.187 8.80435 10.1892 8.80435 10.1913C8.80435 10.1933 8.80435 10.1955 8.80435 10.1976C8.80435 10.1996 8.80435 10.2018 8.80435 10.2039C8.80435 10.2061 8.80435 10.2082 8.80435 10.2103C8.80435 10.2125 8.80435 10.2146 8.80435 10.2168C8.80435 10.219 8.80435 10.2212 8.80435 10.2233C8.80435 10.2256 8.80435 10.2277 8.80435 10.23C8.80435 10.2322 8.80435 10.2344 8.80435 10.2366C8.80435 10.2388 8.80435 10.2411 8.80435 10.2434C8.80435 10.2456 8.80435 10.2479 8.80435 10.2502C8.80435 10.2525 8.80435 10.2547 8.80435 10.257C8.80435 10.2593 8.80435 10.2615 8.80435 10.2639C8.80435 10.2662 8.80435 10.2686 8.80435 10.2709C8.80435 10.2733 8.80435 10.2755 8.80435 10.2779C8.80435 10.2803 8.80435 10.2826 8.80435 10.285C8.80435 10.2874 8.80435 10.2898 8.80435 10.2922C8.80435 10.2946 8.80435 10.297 8.80435 10.2995C8.80435 10.3019 8.80435 10.3043 8.80435 10.3067C8.80435 10.3092 8.80435 10.3116 8.80435 10.3141C8.80435 10.3165 8.80435 10.319 8.80435 10.3216C8.80435 10.3239 8.80435 10.3265 8.80435 10.329C8.80435 10.3315 8.80435 10.334 8.80435 10.3366C8.80435 10.3391 8.80435 10.3416 8.80435 10.3441C8.80435 10.3466 8.80435 10.3493 8.80435 10.3518C8.80435 10.3545 8.80435 10.357 8.80435 10.3596C8.80435 10.3622 8.80435 10.3648 8.80435 10.3674C8.80435 10.37 8.80435 10.3726 8.80435 10.3753C8.80435 10.3779 8.80435 10.3806 8.80435 10.3832C8.80435 10.3859 8.80435 10.3885 8.80435 10.3913C8.80435 10.3939 8.80435 10.3966 8.80435 10.3993C8.80435 10.402 8.80435 10.4048 8.80435 10.4074C8.80435 10.4102 8.80435 10.413 8.80435 10.4157C8.80435 10.4184 8.80435 10.4212 8.80435 10.4239C8.80435 10.4267 8.80435 10.4295 8.80435 10.4324C8.80435 10.4352 8.80435 10.4379 8.80435 10.4407C8.80435 10.4436 8.80435 10.4464 8.80435 10.4493C8.80435 10.4521 8.80435 10.455 8.80435 10.4579C8.80435 10.4606 8.80435 10.4635 8.80435 10.4664C8.80435 10.4693 8.80435 10.4722 8.80435 10.4751C8.80435 10.478 8.80435 10.4809 8.80435 10.484C8.80435 10.4869 8.80435 10.4898 8.80435 10.4928C8.80435 10.4957 8.80435 10.4987 8.80435 10.5017C8.80435 10.5046 8.80435 10.5077 8.80435 10.5107C8.80435 10.5137 8.80435 10.5167 8.80435 10.5198C8.80435 10.5228 8.80435 10.5258 8.80435 10.5288C8.80435 10.5319 8.80435 10.535 8.80435 10.538C8.80435 10.5411 8.80435 10.5442 8.80435 10.5474C8.80435 10.5504 8.80435 10.5536 8.80435 10.5567C8.80435 10.5597 8.80435 10.5629 8.80435 10.566C8.80435 10.5692 8.80435 10.5723 8.80435 10.5756C8.80435 10.5788 8.80435 10.5819 8.80435 10.5851C8.80435 10.5884 8.80435 10.5915 8.80435 10.5948C8.80435 10.5979 8.80435 10.6012 8.80435 10.6045C8.80435 10.6078 8.80435 10.6109 8.80435 10.6142C8.80435 10.6175 8.80435 10.6208 8.80435 10.6242C8.80435 10.6274 8.80435 10.6307 8.80435 10.634C8.80435 10.6374 8.80435 10.6407 8.80435 10.6441C8.80435 10.6474 8.80435 10.6508 8.80435 10.6542C8.80435 10.6576 8.80435 10.6609 8.80435 10.6643C8.80435 10.6677 8.80435 10.6711 8.80435 10.6745C8.80435 10.678 8.80435 10.6814 8.80435 10.6848C8.80435 10.6883 8.80435 10.6917 8.80435 10.6953C8.80435 10.6987 8.80435 10.7022 8.80435 10.7057C8.80435 10.7091 8.80435 10.7127 8.80435 10.7162C8.80435 10.7197 8.80435 10.7233 8.80435 10.7268C8.80435 10.7305 8.80435 10.734 8.80435 10.7375C8.80435 10.7412 8.80435 10.7447 8.80435 10.7484C8.80435 10.7519 8.80435 10.7555 8.80435 10.7592C8.80435 10.7629 8.80435 10.7664 8.80435 10.77C8.80435 10.7737 8.80435 10.7775 8.80435 10.7811C8.80435 10.7848 8.80435 10.7885 8.80435 10.7922C8.80435 10.7959 8.80435 10.7997 8.80435 10.8033C8.80435 10.8071 8.80435 10.8109 8.80435 10.8146C8.80435 10.8183 8.80435 10.8221 8.80435 10.8259C8.80435 10.8297 8.80435 10.8335 8.80435 10.8374C8.80435 10.8412 8.80435 10.8449 8.80435 10.8488C8.80435 10.8526 8.80435 10.8565 8.80435 10.8604C8.80435 10.8642 8.80435 10.8681 8.80435 10.872C8.80435 10.876 8.80435 10.8799 8.80435 10.8838C8.80435 10.8877 8.80435 10.8916 8.80435 10.8956C8.80435 10.8995 8.80435 10.9034 8.80435 10.9075C8.80435 10.9114 8.80435 10.9154 8.80435 10.9195C8.80435 10.9235 8.80435 10.9275 8.80435 10.9316C8.80435 10.9355 8.80435 10.9396 8.80435 10.9437C8.80435 10.9477 8.80435 10.9517 8.80435 10.9559C8.80435 10.9599 8.80435 10.9641 8.80435 10.9681C8.80435 10.9723 8.80435 10.9764 8.80435 10.9806C8.80435 10.9846 8.80435 10.9888 8.80435 10.993C8.80435 10.9973 8.80435 11.0014 8.80435 11.0056C8.80435 11.0097 8.80435 11.014 8.80435 11.0182C8.80435 11.0225 8.80435 11.0266 8.80435 11.0309C8.80435 11.0352 8.80435 11.0395 8.80435 11.0438C8.80435 11.0481 8.80435 11.0524 8.80435 11.0566C8.80435 11.0609 8.80435 11.0653 8.80435 11.0696C8.80435 11.0739 8.80435 11.0783 8.80435 11.0827C8.80435 11.087 8.80435 11.0914 8.80435 11.0959C8.80435 11.1003 8.80435 11.1047 8.80435 11.1091C8.80435 11.1135 8.80435 11.1179 8.80435 11.1225C8.80435 11.1269 8.80435 11.1313 8.80435 11.1358C8.80435 11.1404 8.80435 11.1448 8.80435 11.1493C8.80435 11.1539 8.80435 11.1584 8.80435 11.1629C8.80435 11.1675 8.80435 11.172 8.80435 11.1765C8.80435 11.1811 8.80435 11.1858 8.80435 11.1903C8.80435 11.195 8.80435 11.1995 8.80435 11.2042C8.80435 11.2088 8.80435 11.2135 8.80435 11.2182C8.80435 11.2228 8.80435 11.2275 8.80435 11.2322C8.80435 11.2368 8.80435 11.2415 8.80435 11.2463C8.80435 11.2509 8.80435 11.2557 8.80435 11.2605C8.80435 11.2652 8.80435 11.27 8.80435 11.2748C8.80435 11.2796 8.80435 11.2844 8.80435 11.2891C8.80435 11.2939 8.80435 11.2987 8.80435 11.3036C8.80435 11.3084 8.80435 11.3134 8.80435 11.3181C8.80435 11.3231 8.80435 11.328 8.80435 11.3329C8.80435 11.3377 8.80435 11.3426 8.80435 11.3476C8.80435 11.3526 8.80435 11.3575 8.80435 11.3624C8.80435 11.3674 8.80435 11.3724 8.80435 11.3774C8.80435 11.3823 8.80435 11.3874 8.80435 11.3924C8.80435 11.3975 8.80435 11.4025 8.80435 11.4075C8.80435 11.4126 8.80435 11.4176 8.80435 11.4227C8.80435 11.4278 8.80435 11.4329 8.80435 11.4381C8.80435 11.4431 8.80435 11.4483 8.80435 11.4534C8.80435 11.4585 8.80435 11.4636 8.80435 11.4688C8.80435 11.4741 8.80435 11.4793 8.80435 11.4845C8.80435 11.4896 8.80435 11.4949 8.80435 11.5001C8.80435 11.5054 8.80435 11.5107 8.80435 11.5158C8.80435 11.5211 8.80435 11.5264 8.80435 11.5317C8.80435 11.537 8.80435 11.5423 8.80435 11.5477C8.80435 11.553 8.80435 11.5583 8.80435 11.5638C8.80435 11.5692 8.80435 11.5745 8.80435 11.5799C8.80435 11.5853 8.80435 11.5907 8.80435 11.5962C8.80435 11.6016 8.80435 11.607 8.80435 11.6124C8.80435 11.618 8.80435 11.6234 8.80435 11.6289C8.80435 11.6344 8.80435 11.6399 8.80435 11.6455C8.80435 11.651 8.80435 11.6566 8.80435 11.6621C8.80435 11.6677 8.80435 11.6732 8.80435 11.6788C8.80435 11.6844 8.80435 11.69 8.80435 11.6956C8.80435 11.7012 8.80435 11.7069 8.80435 11.7125C8.80435 11.7182 8.80435 11.7239 8.80435 11.7296C8.80435 11.7352 8.80435 11.7409 8.80435 11.7467C8.80435 11.7524 8.80435 11.7582 8.80435 11.7639C8.80435 11.7697 8.80435 11.7755 8.80435 11.7811C8.80435 11.7869 8.80435 11.7927 8.80435 11.7987C8.80435 11.8045 8.80435 11.8103 8.80435 11.8161C8.80435 11.822 8.80435 11.8278 8.80435 11.8337C8.80435 11.8396 8.80435 11.8456 8.80435 11.8515C8.80435 11.8573 8.80435 11.8633 8.80435 11.8693C8.80435 11.8752 8.80435 11.8811 8.80435 11.8872C8.80435 11.8931 8.80435 11.8992 8.80435 11.9052C8.80435 11.9111 8.80435 11.9172 8.80435 11.9232C8.80435 11.9293 8.80435 11.9353 8.80435 11.9415C8.80435 11.9476 8.80435 11.9536 8.80435 11.9598C8.80435 11.966 8.80435 11.972 8.80435 11.9782C8.80435 11.9844 8.80435 11.9906 8.80435 11.9967C8.80435 12.0029 8.80435 12.0091 8.80435 12.0154C8.80435 12.0216 8.80435 12.0278 8.80435 12.0341C8.80435 12.0404 8.80435 12.0465 8.80435 12.0529C8.80435 12.0592 8.80435 12.0655 8.80435 12.0718C8.80435 12.0782 8.80435 12.0845 8.80435 12.0908C8.80435 12.0972 8.80435 12.1035 8.80435 12.11C8.80435 12.1164 8.80435 12.1228 8.80435 12.1293C8.80435 12.1357 8.80435 12.1421 8.80435 12.1486C8.80435 12.155 8.80435 12.1615 8.80435 12.168C8.80435 12.1745 8.80435 12.1811 8.80435 12.1875C8.80435 12.1941 8.80435 12.2006 8.80435 12.2072C8.80435 12.2137 8.80435 12.2204 8.80435 12.227C8.80435 12.2335 8.80435 12.2402 8.80435 12.2469C8.80435 12.2535 8.80435 12.2601 8.80435 12.2668C8.80435 12.2735 8.80435 12.2802 8.80435 12.2869C8.80435 12.2937 8.80435 12.3004 8.80435 12.307C8.80435 12.3139 8.80435 12.3207 8.80435 12.3273C8.80435 12.3342 8.80435 12.341 8.80435 12.3478C8.80435 12.3546 8.80435 12.3615 8.80435 12.3683C8.80435 12.3751 8.80435 12.3821 8.80435 12.3889C8.80435 12.3958 8.80435 12.4027 8.80435 12.4097C8.80435 12.4166 8.80435 12.4235 8.80435 12.4305C8.80435 12.4374 8.80435 12.4445 8.80435 12.4514C8.80435 12.4585 8.80435 12.4654 8.80435 12.4725C8.80435 12.4795 8.80435 12.4866 8.80435 12.4937C8.80435 12.5007 8.80435 12.5078 8.80435 12.515C8.80435 12.522 8.80435 12.5291 8.80435 12.5363C8.80435 12.5435 8.80435 12.5506 8.80435 12.5577C8.80435 12.5649 8.80435 12.5722 8.80435 12.5794C8.80435 12.5866 8.80435 12.5938 8.80435 12.6011C8.80435 12.6083 8.80435 12.6156 8.80435 12.6229C8.80435 12.6302 8.80435 12.6375 8.80435 12.6448C8.80435 12.6521 8.80435 12.6595 8.80435 12.6669C8.80435 12.6742 8.80435 12.6816 8.80435 12.689C8.80435 12.6964 8.80435 12.7038 8.80435 12.7113C8.80435 12.7187 8.80435 12.7262 8.80435 12.7336C8.80435 12.7412 8.80435 12.7486 8.80435 12.7562C8.80435 12.7636 8.80435 12.7712 8.80435 12.7787C8.80435 12.7863 8.80435 12.7939 8.80435 12.8014C8.80435 12.809 8.80435 12.8167 8.80435 12.8243C8.80435 12.8319 8.80435 12.8395 8.80435 12.8472C8.80435 12.8549 8.80435 12.8626 8.80435 12.8703C8.80435 12.878 8.80435 12.8858 8.80435 12.8935C8.80435 12.9012 8.80435 12.909 8.80435 12.9168C8.80435 12.9245 8.80435 12.9323 8.80435 12.9401C8.80435 12.9479 8.80435 12.9558 8.80435 12.9637C8.80435 12.9715 8.80435 12.9793 8.80435 12.9873C8.80435 12.9952 8.80435 13.003 8.80435 13.011C8.80435 13.0189 8.80435 13.0269 8.80435 13.0349C8.80435 13.0429 8.80435 13.0508 8.80435 13.0589C8.80435 13.0668 8.80435 13.0749 8.80435 13.083C8.80435 13.0911 8.80435 13.0991 8.80435 13.1072C8.80435 13.1153 8.80435 13.1233 8.80435 13.1315C8.80435 13.1396 8.80435 13.1478 8.80435 13.156C8.80435 13.1641 8.80435 13.1723 8.80435 13.1806C8.80435 13.1888 8.80435 13.197 8.80435 13.2052C8.80435 13.2135 8.80435 13.2217 8.80435 13.23C8.80435 13.2383 8.80435 13.2466 8.80435 13.255C8.80435 13.2633 8.80435 13.2716 8.80435 13.2799C8.80435 13.2883 8.80435 13.2967 8.80435 13.3051C8.80435 13.3135 8.80435 13.3219 8.80435 13.3304C8.80435 13.3388 8.80435 13.3473 8.80435 13.3557C8.80435 13.3643 8.80435 13.3727 8.80435 13.3813C8.80435 13.3898 8.80435 13.3983 8.80435 13.4069C8.80435 13.4155 8.80435 13.424 8.80435 13.4326C8.80435 13.4413 8.80435 13.4499 8.80435 13.4586C8.80435 13.4672 8.80435 13.4759 8.80435 13.4846C8.80435 13.4933 8.80435 13.502 8.80435 13.5107C8.80435 13.5194 8.80435 13.5281 8.80435 13.5369C8.80435 13.5456 8.80435 13.5544 8.80435 13.5632C8.80435 13.5721 8.80435 13.5809 8.80435 13.5897C8.80435 13.5986 8.80435 13.6074 8.80435 13.6163C8.80435 13.6252 8.80435 13.6341 8.80435 13.6431C8.80435 13.652 8.80435 13.661 8.80435 13.6699C8.80435 13.6789 8.80435 13.6878 8.80435 13.6969C8.80435 13.7059 8.80435 13.7149 8.80435 13.724C8.80435 13.733 8.80435 13.742 8.80435 13.7512C8.80435 13.7603 8.80435 13.7694 8.80435 13.7785C8.80435 13.7877 8.80435 13.7968 8.80435 13.806C8.80435 13.8152 8.80435 13.8244 8.80435 13.8336C8.80435 13.8428 8.80435 13.852 8.80435 13.8613C8.80435 13.8705 8.80435 13.8799 8.80435 13.8892C8.80435 13.8984 8.80435 13.9077 8.80435 13.917C8.80435 13.9265 8.80435 13.9358 8.80435 13.9452C8.80435 13.9546 8.80435 13.964 8.80435 13.9734C8.80435 13.9829 8.80435 13.9923 8.80435 14.0018C8.80435 14.0112 8.80435 14.0207 8.80435 14.0303C8.80435 14.0397 8.80435 14.0493 8.80435 14.0589C8.80435 14.0684 8.80435 14.0779 8.80435 14.0875C8.80435 14.0971 8.80435 14.1068 8.80435 14.1164C8.80435 14.1261 8.80435 14.1357 8.80435 14.1454C8.80435 14.1551 8.80435 14.1648 8.80435 14.1745C8.80435 14.1842 8.80435 14.1939 8.80435 14.2038C8.80435 14.2135 8.80435 14.2233 8.80435 14.2331C8.80435 14.2429 8.80435 14.2527 8.80435 14.2627C8.80435 14.2725 8.80435 14.2823 8.80435 14.2923C8.80435 14.3021 8.80435 14.3121 8.80435 14.3219C8.80435 14.3319 8.80435 14.3418 8.80435 14.3518C8.80435 14.3619 8.80435 14.3718 8.80435 14.3819C8.80435 14.3919 8.80435 14.402 8.80435 14.4121C8.80435 14.422 8.80435 14.4321 8.80435 14.4423C8.80435 14.4524 8.80435 14.4625 8.80435 14.4727C8.80435 14.4828 8.80435 14.493 8.80435 14.5032C8.80435 14.5134 8.80435 14.5237 8.80435 14.5339C8.80435 14.5441 8.80435 14.5544 8.80435 14.5646C8.80435 14.575 8.80435 14.5853 8.80435 14.5956C8.80435 14.606 8.80435 14.6163 8.80435 14.6267C8.80435 14.637 8.80435 14.6475 8.80435 14.6578C8.80435 14.6683 8.80435 14.6787 8.80435 14.6892C8.80435 14.6997 8.80435 14.7101 8.80435 14.7206C8.80435 14.7312 8.80435 14.7417 8.80435 14.7522C8.80435 14.7628 8.80435 14.7734 8.80435 14.784C8.80435 14.7946 8.80435 14.8052 8.80435 14.8158C8.80435 14.8265 8.80435 14.8371 8.80435 14.8478C8.80435 14.8585 8.80435 14.8693 8.80435 14.88C8.80435 14.8907 8.80435 14.9014 8.80435 14.9123C8.80435 14.923 8.80435 14.9338 8.80435 14.9447C8.80435 14.9555 8.80435 14.9663 8.80435 14.9772C8.80435 14.988 8.80435 14.9989 8.80435 15.0098C8.80435 15.0207 8.80435 15.0317 8.80435 15.0426C8.80435 15.0536 8.80435 15.0646 8.80435 15.0755C8.80435 15.0866 8.80435 15.0976 8.80435 15.1087C8.80435 15.1197 8.80435 15.1308 8.80435 15.1419C8.80435 15.153 8.80435 15.164 8.80435 15.1753C8.80435 15.1864 8.80435 15.1975 8.80435 15.2087C8.80435 15.2199 8.80435 15.2311 8.80435 15.2423C8.80435 15.2536 8.80435 15.2648 8.80435 15.2761C8.80435 15.2874 8.80435 15.2987 8.80435 15.3101C8.80435 15.3213 8.80435 15.3326 8.80435 15.3441C8.80435 15.3554 8.80435 15.3668 8.80435 15.3783C8.80435 15.3896 8.80435 15.4011 8.80435 15.4126C8.80435 15.424 8.80435 15.4355 8.80435 15.447C8.80435 15.4585 8.80435 15.4701 8.80435 15.4815C8.80435 15.4931 8.80435 15.5047 8.80435 15.5163C8.80435 15.5279 8.80435 15.5395 8.80435 15.5513C8.80435 15.5629 8.80435 15.5746 8.80435 15.5862C8.80435 15.5979 8.80435 15.6096 8.80435 15.6214C8.80435 15.6331 8.80435 15.6449 8.80435 15.6567C8.80435 15.6685 8.80435 15.6802 8.80435 15.6921C8.80435 15.704 8.80435 15.7158 8.80435 15.7277C8.80435 15.7396 8.80435 15.7515 8.80435 15.7635C8.80435 15.7753 8.80435 15.7873 8.80435 15.7993C8.80435 15.8113 8.80435 15.8232 8.80435 15.8353C8.80435 15.8473 8.80435 15.8594 8.80435 15.8714C8.80435 15.8835 8.80435 15.8956 8.80435 15.9077C8.80435 15.9198 8.80435 15.932 8.80435 15.9441C8.80435 15.9564 8.80435 15.9685 8.80435 15.9807C8.80435 15.9929 8.80435 16.0052 8.80435 16.0175C8.80435 16.0298 8.80435 16.042 8.80435 16.0543H10.6957C10.6957 16.042 10.6957 16.0298 10.6957 16.0175C10.6957 16.0052 10.6957 15.9929 10.6957 15.9807C10.6957 15.9685 10.6957 15.9564 10.6957 15.9441C10.6957 15.932 10.6957 15.9198 10.6957 15.9077C10.6957 15.8956 10.6957 15.8835 10.6957 15.8714C10.6957 15.8594 10.6957 15.8473 10.6957 15.8353C10.6957 15.8232 10.6957 15.8113 10.6957 15.7993C10.6957 15.7873 10.6957 15.7753 10.6957 15.7635C10.6957 15.7515 10.6957 15.7396 10.6957 15.7277C10.6957 15.7158 10.6957 15.704 10.6957 15.6921C10.6957 15.6802 10.6957 15.6685 10.6957 15.6567C10.6957 15.6449 10.6957 15.6331 10.6957 15.6214C10.6957 15.6096 10.6957 15.5979 10.6957 15.5862C10.6957 15.5746 10.6957 15.5629 10.6957 15.5513C10.6957 15.5395 10.6957 15.5279 10.6957 15.5163C10.6957 15.5047 10.6957 15.4931 10.6957 15.4815C10.6957 15.4701 10.6957 15.4585 10.6957 15.447C10.6957 15.4355 10.6957 15.424 10.6957 15.4126C10.6957 15.4011 10.6957 15.3896 10.6957 15.3783C10.6957 15.3668 10.6957 15.3554 10.6957 15.3441C10.6957 15.3326 10.6957 15.3213 10.6957 15.3101C10.6957 15.2987 10.6957 15.2874 10.6957 15.2761C10.6957 15.2648 10.6957 15.2536 10.6957 15.2423C10.6957 15.2311 10.6957 15.2199 10.6957 15.2087C10.6957 15.1975 10.6957 15.1864 10.6957 15.1753C10.6957 15.164 10.6957 15.153 10.6957 15.1419C10.6957 15.1308 10.6957 15.1197 10.6957 15.1087C10.6957 15.0976 10.6957 15.0866 10.6957 15.0755C10.6957 15.0646 10.6957 15.0536 10.6957 15.0426C10.6957 15.0317 10.6957 15.0207 10.6957 15.0098C10.6957 14.9989 10.6957 14.988 10.6957 14.9772C10.6957 14.9663 10.6957 14.9555 10.6957 14.9447C10.6957 14.9338 10.6957 14.923 10.6957 14.9123C10.6957 14.9014 10.6957 14.8907 10.6957 14.88C10.6957 14.8693 10.6957 14.8585 10.6957 14.8478C10.6957 14.8371 10.6957 14.8265 10.6957 14.8158C10.6957 14.8052 10.6957 14.7946 10.6957 14.784C10.6957 14.7734 10.6957 14.7628 10.6957 14.7522C10.6957 14.7417 10.6957 14.7312 10.6957 14.7206C10.6957 14.7101 10.6957 14.6997 10.6957 14.6892C10.6957 14.6787 10.6957 14.6683 10.6957 14.6578C10.6957 14.6475 10.6957 14.637 10.6957 14.6267C10.6957 14.6163 10.6957 14.606 10.6957 14.5956C10.6957 14.5853 10.6957 14.575 10.6957 14.5646C10.6957 14.5544 10.6957 14.5441 10.6957 14.5339C10.6957 14.5237 10.6957 14.5134 10.6957 14.5032C10.6957 14.493 10.6957 14.4828 10.6957 14.4727C10.6957 14.4625 10.6957 14.4524 10.6957 14.4423C10.6957 14.4321 10.6957 14.422 10.6957 14.4121C10.6957 14.402 10.6957 14.3919 10.6957 14.3819C10.6957 14.3718 10.6957 14.3619 10.6957 14.3518C10.6957 14.3418 10.6957 14.3319 10.6957 14.3219C10.6957 14.3121 10.6957 14.3021 10.6957 14.2923C10.6957 14.2823 10.6957 14.2725 10.6957 14.2627C10.6957 14.2527 10.6957 14.2429 10.6957 14.2331C10.6957 14.2233 10.6957 14.2135 10.6957 14.2038C10.6957 14.1939 10.6957 14.1842 10.6957 14.1745C10.6957 14.1648 10.6957 14.1551 10.6957 14.1454C10.6957 14.1357 10.6957 14.1261 10.6957 14.1164C10.6957 14.1068 10.6957 14.0971 10.6957 14.0875C10.6957 14.0779 10.6957 14.0684 10.6957 14.0589C10.6957 14.0493 10.6957 14.0397 10.6957 14.0303C10.6957 14.0207 10.6957 14.0112 10.6957 14.0018C10.6957 13.9923 10.6957 13.9829 10.6957 13.9734C10.6957 13.964 10.6957 13.9546 10.6957 13.9452C10.6957 13.9358 10.6957 13.9265 10.6957 13.917C10.6957 13.9077 10.6957 13.8984 10.6957 13.8892C10.6957 13.8799 10.6957 13.8705 10.6957 13.8613C10.6957 13.852 10.6957 13.8428 10.6957 13.8336C10.6957 13.8244 10.6957 13.8152 10.6957 13.806C10.6957 13.7968 10.6957 13.7877 10.6957 13.7785C10.6957 13.7694 10.6957 13.7603 10.6957 13.7512C10.6957 13.742 10.6957 13.733 10.6957 13.724C10.6957 13.7149 10.6957 13.7059 10.6957 13.6969C10.6957 13.6878 10.6957 13.6789 10.6957 13.6699C10.6957 13.661 10.6957 13.652 10.6957 13.6431C10.6957 13.6341 10.6957 13.6252 10.6957 13.6163C10.6957 13.6074 10.6957 13.5986 10.6957 13.5897C10.6957 13.5809 10.6957 13.5721 10.6957 13.5632C10.6957 13.5544 10.6957 13.5456 10.6957 13.5369C10.6957 13.5281 10.6957 13.5194 10.6957 13.5107C10.6957 13.502 10.6957 13.4933 10.6957 13.4846C10.6957 13.4759 10.6957 13.4672 10.6957 13.4586C10.6957 13.4499 10.6957 13.4413 10.6957 13.4326C10.6957 13.424 10.6957 13.4155 10.6957 13.4069C10.6957 13.3983 10.6957 13.3898 10.6957 13.3813C10.6957 13.3727 10.6957 13.3643 10.6957 13.3557C10.6957 13.3473 10.6957 13.3388 10.6957 13.3304C10.6957 13.3219 10.6957 13.3135 10.6957 13.3051C10.6957 13.2967 10.6957 13.2883 10.6957 13.2799C10.6957 13.2716 10.6957 13.2633 10.6957 13.255C10.6957 13.2466 10.6957 13.2383 10.6957 13.23C10.6957 13.2217 10.6957 13.2135 10.6957 13.2052C10.6957 13.197 10.6957 13.1888 10.6957 13.1806C10.6957 13.1723 10.6957 13.1641 10.6957 13.156C10.6957 13.1478 10.6957 13.1396 10.6957 13.1315C10.6957 13.1233 10.6957 13.1153 10.6957 13.1072C10.6957 13.0991 10.6957 13.0911 10.6957 13.083C10.6957 13.0749 10.6957 13.0668 10.6957 13.0589C10.6957 13.0508 10.6957 13.0429 10.6957 13.0349C10.6957 13.0269 10.6957 13.0189 10.6957 13.011C10.6957 13.003 10.6957 12.9952 10.6957 12.9873C10.6957 12.9793 10.6957 12.9715 10.6957 12.9637C10.6957 12.9558 10.6957 12.9479 10.6957 12.9401C10.6957 12.9323 10.6957 12.9245 10.6957 12.9168C10.6957 12.909 10.6957 12.9012 10.6957 12.8935C10.6957 12.8858 10.6957 12.878 10.6957 12.8703C10.6957 12.8626 10.6957 12.8549 10.6957 12.8472C10.6957 12.8395 10.6957 12.8319 10.6957 12.8243C10.6957 12.8167 10.6957 12.809 10.6957 12.8014C10.6957 12.7939 10.6957 12.7863 10.6957 12.7787C10.6957 12.7712 10.6957 12.7636 10.6957 12.7562C10.6957 12.7486 10.6957 12.7412 10.6957 12.7336C10.6957 12.7262 10.6957 12.7187 10.6957 12.7113C10.6957 12.7038 10.6957 12.6964 10.6957 12.689C10.6957 12.6816 10.6957 12.6742 10.6957 12.6669C10.6957 12.6595 10.6957 12.6521 10.6957 12.6448C10.6957 12.6375 10.6957 12.6302 10.6957 12.6229C10.6957 12.6156 10.6957 12.6083 10.6957 12.6011C10.6957 12.5938 10.6957 12.5866 10.6957 12.5794C10.6957 12.5722 10.6957 12.5649 10.6957 12.5577C10.6957 12.5506 10.6957 12.5435 10.6957 12.5363C10.6957 12.5291 10.6957 12.522 10.6957 12.515C10.6957 12.5078 10.6957 12.5007 10.6957 12.4937C10.6957 12.4866 10.6957 12.4795 10.6957 12.4725C10.6957 12.4654 10.6957 12.4585 10.6957 12.4514C10.6957 12.4445 10.6957 12.4374 10.6957 12.4305C10.6957 12.4235 10.6957 12.4166 10.6957 12.4097C10.6957 12.4027 10.6957 12.3958 10.6957 12.3889C10.6957 12.3821 10.6957 12.3751 10.6957 12.3683C10.6957 12.3615 10.6957 12.3546 10.6957 12.3478C10.6957 12.341 10.6957 12.3342 10.6957 12.3273C10.6957 12.3207 10.6957 12.3139 10.6957 12.307C10.6957 12.3004 10.6957 12.2937 10.6957 12.2869C10.6957 12.2802 10.6957 12.2735 10.6957 12.2668C10.6957 12.2601 10.6957 12.2535 10.6957 12.2469C10.6957 12.2402 10.6957 12.2335 10.6957 12.227C10.6957 12.2204 10.6957 12.2137 10.6957 12.2072C10.6957 12.2006 10.6957 12.1941 10.6957 12.1875C10.6957 12.1811 10.6957 12.1745 10.6957 12.168C10.6957 12.1615 10.6957 12.155 10.6957 12.1486C10.6957 12.1421 10.6957 12.1357 10.6957 12.1293C10.6957 12.1228 10.6957 12.1164 10.6957 12.11C10.6957 12.1035 10.6957 12.0972 10.6957 12.0908C10.6957 12.0845 10.6957 12.0782 10.6957 12.0718C10.6957 12.0655 10.6957 12.0592 10.6957 12.0529C10.6957 12.0465 10.6957 12.0404 10.6957 12.0341C10.6957 12.0278 10.6957 12.0216 10.6957 12.0154C10.6957 12.0091 10.6957 12.0029 10.6957 11.9967C10.6957 11.9906 10.6957 11.9844 10.6957 11.9782C10.6957 11.972 10.6957 11.966 10.6957 11.9598C10.6957 11.9536 10.6957 11.9476 10.6957 11.9415C10.6957 11.9353 10.6957 11.9293 10.6957 11.9232C10.6957 11.9172 10.6957 11.9111 10.6957 11.9052C10.6957 11.8992 10.6957 11.8931 10.6957 11.8872C10.6957 11.8811 10.6957 11.8752 10.6957 11.8693C10.6957 11.8633 10.6957 11.8573 10.6957 11.8515C10.6957 11.8456 10.6957 11.8396 10.6957 11.8337C10.6957 11.8278 10.6957 11.822 10.6957 11.8161C10.6957 11.8103 10.6957 11.8045 10.6957 11.7987C10.6957 11.7927 10.6957 11.7869 10.6957 11.7811C10.6957 11.7755 10.6957 11.7697 10.6957 11.7639C10.6957 11.7582 10.6957 11.7524 10.6957 11.7467C10.6957 11.7409 10.6957 11.7352 10.6957 11.7296C10.6957 11.7239 10.6957 11.7182 10.6957 11.7125C10.6957 11.7069 10.6957 11.7012 10.6957 11.6956C10.6957 11.69 10.6957 11.6844 10.6957 11.6788C10.6957 11.6732 10.6957 11.6677 10.6957 11.6621C10.6957 11.6566 10.6957 11.651 10.6957 11.6455C10.6957 11.6399 10.6957 11.6344 10.6957 11.6289C10.6957 11.6234 10.6957 11.618 10.6957 11.6124C10.6957 11.607 10.6957 11.6016 10.6957 11.5962C10.6957 11.5907 10.6957 11.5853 10.6957 11.5799C10.6957 11.5745 10.6957 11.5692 10.6957 11.5638C10.6957 11.5583 10.6957 11.553 10.6957 11.5477C10.6957 11.5423 10.6957 11.537 10.6957 11.5317C10.6957 11.5264 10.6957 11.5211 10.6957 11.5158C10.6957 11.5107 10.6957 11.5054 10.6957 11.5001C10.6957 11.4949 10.6957 11.4896 10.6957 11.4845C10.6957 11.4793 10.6957 11.4741 10.6957 11.4688C10.6957 11.4636 10.6957 11.4585 10.6957 11.4534C10.6957 11.4483 10.6957 11.4431 10.6957 11.4381C10.6957 11.4329 10.6957 11.4278 10.6957 11.4227C10.6957 11.4176 10.6957 11.4126 10.6957 11.4075C10.6957 11.4025 10.6957 11.3975 10.6957 11.3924C10.6957 11.3874 10.6957 11.3823 10.6957 11.3774C10.6957 11.3724 10.6957 11.3674 10.6957 11.3624C10.6957 11.3575 10.6957 11.3526 10.6957 11.3476C10.6957 11.3426 10.6957 11.3377 10.6957 11.3329C10.6957 11.328 10.6957 11.3231 10.6957 11.3181C10.6957 11.3134 10.6957 11.3084 10.6957 11.3036C10.6957 11.2987 10.6957 11.2939 10.6957 11.2891C10.6957 11.2844 10.6957 11.2796 10.6957 11.2748C10.6957 11.27 10.6957 11.2652 10.6957 11.2605C10.6957 11.2557 10.6957 11.2509 10.6957 11.2463C10.6957 11.2415 10.6957 11.2368 10.6957 11.2322C10.6957 11.2275 10.6957 11.2228 10.6957 11.2182C10.6957 11.2135 10.6957 11.2088 10.6957 11.2042C10.6957 11.1995 10.6957 11.195 10.6957 11.1903C10.6957 11.1858 10.6957 11.1811 10.6957 11.1765C10.6957 11.172 10.6957 11.1675 10.6957 11.1629C10.6957 11.1584 10.6957 11.1539 10.6957 11.1493C10.6957 11.1448 10.6957 11.1404 10.6957 11.1358C10.6957 11.1313 10.6957 11.1269 10.6957 11.1225C10.6957 11.1179 10.6957 11.1135 10.6957 11.1091C10.6957 11.1047 10.6957 11.1003 10.6957 11.0959C10.6957 11.0914 10.6957 11.087 10.6957 11.0827C10.6957 11.0783 10.6957 11.0739 10.6957 11.0696C10.6957 11.0653 10.6957 11.0609 10.6957 11.0566C10.6957 11.0524 10.6957 11.0481 10.6957 11.0438C10.6957 11.0395 10.6957 11.0352 10.6957 11.0309C10.6957 11.0266 10.6957 11.0225 10.6957 11.0182C10.6957 11.014 10.6957 11.0097 10.6957 11.0056C10.6957 11.0014 10.6957 10.9973 10.6957 10.993C10.6957 10.9888 10.6957 10.9846 10.6957 10.9806C10.6957 10.9764 10.6957 10.9723 10.6957 10.9681C10.6957 10.9641 10.6957 10.9599 10.6957 10.9559C10.6957 10.9517 10.6957 10.9477 10.6957 10.9437C10.6957 10.9396 10.6957 10.9355 10.6957 10.9316C10.6957 10.9275 10.6957 10.9235 10.6957 10.9195C10.6957 10.9154 10.6957 10.9114 10.6957 10.9075C10.6957 10.9034 10.6957 10.8995 10.6957 10.8956C10.6957 10.8916 10.6957 10.8877 10.6957 10.8838C10.6957 10.8799 10.6957 10.876 10.6957 10.872C10.6957 10.8681 10.6957 10.8642 10.6957 10.8604C10.6957 10.8565 10.6957 10.8526 10.6957 10.8488C10.6957 10.8449 10.6957 10.8412 10.6957 10.8374C10.6957 10.8335 10.6957 10.8297 10.6957 10.8259C10.6957 10.8221 10.6957 10.8183 10.6957 10.8146C10.6957 10.8109 10.6957 10.8071 10.6957 10.8033C10.6957 10.7997 10.6957 10.7959 10.6957 10.7922C10.6957 10.7885 10.6957 10.7848 10.6957 10.7811C10.6957 10.7775 10.6957 10.7737 10.6957 10.77C10.6957 10.7664 10.6957 10.7629 10.6957 10.7592C10.6957 10.7555 10.6957 10.7519 10.6957 10.7484C10.6957 10.7447 10.6957 10.7412 10.6957 10.7375C10.6957 10.734 10.6957 10.7305 10.6957 10.7268C10.6957 10.7233 10.6957 10.7197 10.6957 10.7162C10.6957 10.7127 10.6957 10.7091 10.6957 10.7057C10.6957 10.7022 10.6957 10.6987 10.6957 10.6953C10.6957 10.6917 10.6957 10.6883 10.6957 10.6848C10.6957 10.6814 10.6957 10.678 10.6957 10.6745C10.6957 10.6711 10.6957 10.6677 10.6957 10.6643C10.6957 10.6609 10.6957 10.6576 10.6957 10.6542C10.6957 10.6508 10.6957 10.6474 10.6957 10.6441C10.6957 10.6407 10.6957 10.6374 10.6957 10.634C10.6957 10.6307 10.6957 10.6274 10.6957 10.6242C10.6957 10.6208 10.6957 10.6175 10.6957 10.6142C10.6957 10.6109 10.6957 10.6078 10.6957 10.6045C10.6957 10.6012 10.6957 10.5979 10.6957 10.5948C10.6957 10.5915 10.6957 10.5884 10.6957 10.5851C10.6957 10.5819 10.6957 10.5788 10.6957 10.5756C10.6957 10.5723 10.6957 10.5692 10.6957 10.566C10.6957 10.5629 10.6957 10.5597 10.6957 10.5567C10.6957 10.5536 10.6957 10.5504 10.6957 10.5474C10.6957 10.5442 10.6957 10.5411 10.6957 10.538C10.6957 10.535 10.6957 10.5319 10.6957 10.5288C10.6957 10.5258 10.6957 10.5228 10.6957 10.5198C10.6957 10.5167 10.6957 10.5137 10.6957 10.5107C10.6957 10.5077 10.6957 10.5046 10.6957 10.5017C10.6957 10.4987 10.6957 10.4957 10.6957 10.4928C10.6957 10.4898 10.6957 10.4869 10.6957 10.484C10.6957 10.4809 10.6957 10.478 10.6957 10.4751C10.6957 10.4722 10.6957 10.4693 10.6957 10.4664C10.6957 10.4635 10.6957 10.4606 10.6957 10.4579C10.6957 10.455 10.6957 10.4521 10.6957 10.4493C10.6957 10.4464 10.6957 10.4436 10.6957 10.4407C10.6957 10.4379 10.6957 10.4352 10.6957 10.4324C10.6957 10.4295 10.6957 10.4267 10.6957 10.4239C10.6957 10.4212 10.6957 10.4184 10.6957 10.4157C10.6957 10.413 10.6957 10.4102 10.6957 10.4074C10.6957 10.4048 10.6957 10.402 10.6957 10.3993C10.6957 10.3966 10.6957 10.3939 10.6957 10.3913C10.6957 10.3885 10.6957 10.3859 10.6957 10.3832C10.6957 10.3806 10.6957 10.3779 10.6957 10.3753C10.6957 10.3726 10.6957 10.37 10.6957 10.3674C10.6957 10.3648 10.6957 10.3622 10.6957 10.3596C10.6957 10.357 10.6957 10.3545 10.6957 10.3518C10.6957 10.3493 10.6957 10.3466 10.6957 10.3441C10.6957 10.3416 10.6957 10.3391 10.6957 10.3366C10.6957 10.334 10.6957 10.3315 10.6957 10.329C10.6957 10.3265 10.6957 10.3239 10.6957 10.3216C10.6957 10.319 10.6957 10.3165 10.6957 10.3141C10.6957 10.3116 10.6957 10.3092 10.6957 10.3067C10.6957 10.3043 10.6957 10.3019 10.6957 10.2995C10.6957 10.297 10.6957 10.2946 10.6957 10.2922C10.6957 10.2898 10.6957 10.2874 10.6957 10.285C10.6957 10.2826 10.6957 10.2803 10.6957 10.2779C10.6957 10.2755 10.6957 10.2733 10.6957 10.2709C10.6957 10.2686 10.6957 10.2662 10.6957 10.2639C10.6957 10.2615 10.6957 10.2593 10.6957 10.257C10.6957 10.2547 10.6957 10.2525 10.6957 10.2502C10.6957 10.2479 10.6957 10.2456 10.6957 10.2434C10.6957 10.2411 10.6957 10.2388 10.6957 10.2366C10.6957 10.2344 10.6957 10.2322 10.6957 10.23C10.6957 10.2277 10.6957 10.2256 10.6957 10.2233C10.6957 10.2212 10.6957 10.219 10.6957 10.2168C10.6957 10.2146 10.6957 10.2125 10.6957 10.2103C10.6957 10.2082 10.6957 10.2061 10.6957 10.2039C10.6957 10.2018 10.6957 10.1996 10.6957 10.1976C10.6957 10.1955 10.6957 10.1933 10.6957 10.1913C10.6957 10.1892 10.6957 10.187 10.6957 10.185C10.6957 10.183 10.6957 10.1808 10.6957 10.1788C10.6957 10.1768 10.6957 10.1747 10.6957 10.1726C10.6957 10.1706 10.6957 10.1686 10.6957 10.1666C10.6957 10.1646 10.6957 10.1626 10.6957 10.1607C10.6957 10.1586 10.6957 10.1566 10.6957 10.1546C10.6957 10.1527 10.6957 10.1507 10.6957 10.1488C10.6957 10.1468 10.6957 10.1449 10.6957 10.1429C10.6957 10.141 10.6957 10.1391 10.6957 10.1372C10.6957 10.1352 10.6957 10.1333 10.6957 10.1314C10.6957 10.1295 10.6957 10.1276 10.6957 10.1257C10.6957 10.1238 10.6957 10.1221 10.6957 10.1202C10.6957 10.1183 10.6957 10.1164 10.6957 10.1146C10.6957 10.1128 10.6957 10.111 10.6957 10.1091C10.6957 10.1073 10.6957 10.1054 10.6957 10.1037C10.6957 10.1019 10.6957 10.1 10.6957 10.0983C10.6957 10.0965 10.6957 10.0947 10.6957 10.093C10.6957 10.0912 10.6957 10.0894 10.6957 10.0877C10.6957 10.0859 10.6957 10.0841 10.6957 10.0825C10.6957 10.0807 10.6957 10.079 10.6957 10.0773C10.6957 10.0756 10.6957 10.0739 10.6957 10.0722C10.6957 10.0705 10.6957 10.0687 10.6957 10.0671C10.6957 10.0655 10.6957 10.0637 10.6957 10.0621C10.6957 10.0604 10.6957 10.0588 10.6957 10.0571C10.6957 10.0555 10.6957 10.0539 10.6957 10.0522C10.6957 10.0506 10.6957 10.049 10.6957 10.0474C10.6957 10.0458 10.6957 10.0442 10.6957 10.0426C10.6957 10.041 10.6957 10.0395 10.6957 10.0379C10.6957 10.0363 10.6957 10.0347 10.6957 10.0332C10.6957 10.0316 10.6957 10.03 10.6957 10.0285C10.6957 10.027 10.6957 10.0255 10.6957 10.024C10.6957 10.0225 10.6957 10.021 10.6957 10.0194C10.6957 10.0179 10.6957 10.0164 10.6957 10.0149C10.6957 10.0134 10.6957 10.0119 10.6957 10.0105C10.6957 10.009 10.6957 10.0075 10.6957 10.0061C10.6957 10.0046 10.6957 10.0032 10.6957 10.0018C10.6957 10.0003 10.6957 9.9989 10.6957 9.99738C10.6957 9.996 10.6957 9.99461 10.6957 9.99322C10.6957 9.99183 10.6957 9.99045 10.6957 9.98906C10.6957 9.98767 10.6957 9.98629 10.6957 9.9849C10.6957 9.98351 10.6957 9.98213 10.6957 9.98074C10.6957 9.97935 10.6957 9.97809 10.6957 9.9767C10.6957 9.97532 10.6957 9.97406 10.6957 9.97267C10.6957 9.97141 10.6957 9.97002 10.6957 9.96876C10.6957 9.9675 10.6957 9.96611 10.6957 9.96485C10.6957 9.96359 10.6957 9.96233 10.6957 9.96094C10.6957 9.95968 10.6957 9.95842 10.6957 9.95716C10.6957 9.9559 10.6957 9.95464 10.6957 9.95338C10.6957 9.95212 10.6957 9.95098 10.6957 9.94972C10.6957 9.94846 10.6957 9.9472 10.6957 9.94607C10.6957 9.94481 10.6957 9.94354 10.6957 9.94241C10.6957 9.94115 10.6957 9.94001 10.6957 9.93875C10.6957 9.93762 10.6957 9.93648 10.6957 9.93522C10.6957 9.93409 10.6957 9.93295 10.6957 9.93182C10.6957 9.93056 10.6957 9.92942 10.6957 9.92829C10.6957 9.92715 10.6957 9.92602 10.6957 9.92488C10.6957 9.92375 10.6957 9.92261 10.6957 9.9216C10.6957 9.92047 10.6957 9.91934 10.6957 9.9182C10.6957 9.91719 10.6957 9.91606 10.6957 9.91492C10.6957 9.91391 10.6957 9.91278 10.6957 9.91177C10.6957 9.91063 10.6957 9.90963 10.6957 9.90849C10.6957 9.90748 10.6957 9.90647 10.6957 9.90534C10.6957 9.90433 10.6957 9.90332 10.6957 9.90231C10.6957 9.9013 10.6957 9.90017 10.6957 9.89916C10.6957 9.89815 10.6957 9.89714 10.6957 9.89614C10.6957 9.89513 10.6957 9.89424 10.6957 9.89323C10.6957 9.89223 10.6957 9.89122 10.6957 9.89021C10.6957 9.88933 10.6957 9.88832 10.6957 9.88731C10.6957 9.88643 10.6957 9.88542 10.6957 9.88454C10.6957 9.88353 10.6957 9.88264 10.6957 9.88163C10.6957 9.88075 10.6957 9.87987 10.6957 9.87886C10.6957 9.87798 10.6957 9.8771 10.6957 9.87609C10.6957 9.87521 10.6957 9.87432 10.6957 9.87344C10.6957 9.87256 10.6957 9.87167 10.6957 9.87079C10.6957 9.86991 10.6957 9.86903 10.6957 9.86814C10.6957 9.86726 10.6957 9.86638 10.6957 9.86562C10.6957 9.86474 10.6957 9.86386 10.6957 9.86297C10.6957 9.86222 10.6957 9.86133 10.6957 9.86045C10.6957 9.8597 10.6957 9.85881 10.6957 9.85806C10.6957 9.85717 10.6957 9.85642 10.6957 9.85554C10.6957 9.85478 10.6957 9.85402 10.6957 9.85314C10.6957 9.85238 10.6957 9.85163 10.6957 9.85087C10.6957 9.85011 10.6957 9.84923 10.6957 9.84847C10.6957 9.84772 10.6957 9.84696 10.6957 9.8462C10.6957 9.84545 10.6957 9.84469 10.6957 9.84394C10.6957 9.84318 10.6957 9.84242 10.6957 9.84179C10.6957 9.84103 10.6957 9.84028 10.6957 9.83952C10.6957 9.83889 10.6957 9.83813 10.6957 9.83738C10.6957 9.83675 10.6957 9.83599 10.6957 9.83524C10.6957 9.8346 10.6957 9.83385 10.6957 9.83322C10.6957 9.83259 10.6957 9.83183 10.6957 9.8312C10.6957 9.83044 10.6957 9.82981 10.6957 9.82918C10.6957 9.82843 10.6957 9.8278 10.6957 9.82717C10.6957 9.82654 10.6957 9.8259 10.6957 9.82527C10.6957 9.82464 10.6957 9.82389 10.6957 9.82326C10.6957 9.82263 10.6957 9.822 10.6957 9.82149C10.6957 9.82086 10.6957 9.82023 10.6957 9.8196C10.6957 9.81897 10.6957 9.81834 10.6957 9.81783C10.6957 9.8172 10.6957 9.81657 10.6957 9.81594C10.6957 9.81544 10.6957 9.81481 10.6957 9.81418C10.6957 9.81367 10.6957 9.81304 10.6957 9.81254C10.6957 9.81191 10.6957 9.8114 10.6957 9.81077C10.6957 9.81027 10.6957 9.80977 10.6957 9.80913C10.6957 9.80863 10.6957 9.80813 10.6957 9.8075C10.6957 9.80699 10.6957 9.80649 10.6957 9.80598C10.6957 9.80548 10.6957 9.80485 10.6957 9.80434C10.6957 9.80384 10.6957 9.80333 10.6957 9.80283C10.6957 9.80233 10.6957 9.80182 10.6957 9.80132C10.6957 9.80081 10.6957 9.80031 10.6957 9.7998C10.6957 9.7993 10.6957 9.79892 10.6957 9.79842C10.6957 9.79791 10.6957 9.79741 10.6957 9.79703C10.6957 9.79653 10.6957 9.79602 10.6957 9.79552C10.6957 9.79514 10.6957 9.79464 10.6957 9.79426C10.6957 9.79375 10.6957 9.79337 10.6957 9.79287C10.6957 9.79237 10.6957 9.79199 10.6957 9.79161C10.6957 9.7911 10.6957 9.79073 10.6957 9.79022C10.6957 9.78984 10.6957 9.78947 10.6957 9.78896C10.6957 9.78934 10.6957 9.78858 10.6957 9.78896C10.6957 9.78846 10.6957 9.78694 10.6957 9.78657C10.6957 9.78694 10.6957 9.78619 10.6957 9.78657C10.6957 9.78619 10.6957 9.78467 10.6957 9.7843C10.6957 9.78467 10.6957 9.78392 10.6957 9.7843C10.6957 9.78392 10.6957 9.7824 10.6957 9.78203C10.6957 9.7824 10.6957 9.78165 10.6957 9.78203C10.6957 9.78165 10.6957 9.78026 10.6957 9.77988C10.6957 9.78013 10.6957 9.7795 10.6957 9.77988C10.6957 9.7795 10.6957 9.77812 10.6957 9.77787C10.6957 9.77824 10.6957 9.77749 10.6957 9.77787C10.6957 9.77749 10.6957 9.77623 10.6957 9.77585C10.6957 9.7761 10.6957 9.7756 10.6957 9.77585C10.6957 9.7756 10.6957 9.77434 10.6957 9.77408C10.6957 9.77434 10.6957 9.7737 10.6957 9.77408C10.6957 9.7737 10.6957 9.77257 10.6957 9.77232C10.6957 9.77257 10.6957 9.77207 10.6957 9.77232C10.6957 9.77207 10.6957 9.77093 10.6957 9.77068C10.6957 9.77093 10.6957 9.7703 10.6957 9.77068C10.6957 9.77043 10.6957 9.76929 10.6957 9.76904C10.6957 9.76929 10.6957 9.76879 10.6957 9.76904C10.6957 9.76879 10.6957 9.76778 10.6957 9.76753C10.6957 9.76778 10.6957 9.76727 10.6957 9.76753C10.6957 9.76727 10.6957 9.76639 10.6957 9.76614C10.6957 9.76639 10.6957 9.76589 10.6957 9.76614C10.6957 9.76601 10.6957 9.765 10.6957 9.76475C10.6957 9.7645 10.6957 9.76311 10.6957 9.76286C10.6957 9.76273 10.6957 9.76135 10.6957 9.76122C10.6957 9.7611 10.6957 9.75984 10.6957 9.75971C10.6957 9.75958 10.6957 9.75845 10.6957 9.7582C10.6957 9.75807 10.6957 9.75719 10.6957 9.75693C10.6957 9.75681 10.6957 9.75567 10.6957 9.75555C10.6957 9.75567 10.6957 9.75542 10.6957 9.75555C10.6957 9.75542 10.6957 9.75441 10.6957 9.75429C10.6957 9.75416 10.6957 9.7529 10.6957 9.75277C10.6957 9.75277 10.6957 9.75164 10.6957 9.75151C10.6957 9.75139 10.6957 9.75 10.6957 9.75H9.75ZM10.6957 9.75V3.44565H8.80435V9.75H10.6957Z" fill="white"/>
</svg>
